<svg width="21" height="21" viewBox="0 0 21 21" version="1.1" xmlns="http://www.w3.org/2000/svg" xmlns:xlink="http://www.w3.org/1999/xlink">
<title>icon-search</title>
<desc>Created using Figma</desc>
<g id="Canvas" transform="translate(-1365 373)">
<g id="icon-search">
<g id="Group">
<g id="Vector">
<use xlink:href="#path0_fill" transform="translate(1365.92 -372.083)" fill="#596176"/>
</g>
</g>
</g>
</g>
<defs>
<path id="path0_fill" d="M 18.8885 16.1764L 15.9272 13.2151C 18.2636 9.49839 17.4353 4.61972 14.0033 1.88225C 10.5712 -0.855227 5.63052 -0.577987 2.52627 2.52627C -0.577987 5.63052 -0.855227 10.5712 1.88225 14.0033C 4.61972 17.4353 9.49839 18.2636 13.2151 15.9272L 16.1764 18.8885C 16.5502 19.2601 17.1539 19.2601 17.5277 18.8885L 18.8789 17.5372C 19.0616 17.3586 19.1654 17.1143 19.1672 16.8588C 19.169 16.6033 19.0686 16.3576 18.8885 16.1764ZM 1.9164 8.62473C 1.9164 4.91982 4.91982 1.9164 8.62473 1.9164C 12.3296 1.9164 15.3331 4.91982 15.3331 8.62473C 15.3331 12.3296 12.3296 15.3331 8.62473 15.3331C 4.91982 15.3331 1.9164 12.3296 1.9164 8.62473Z"/>
</defs>
</svg>
